<svg version="1.2" xmlns="http://www.w3.org/2000/svg" viewBox="0 0 886 80" width="886" height="80"><style>.a{fill:#fff}</style><path class="a" d="m7.1 68h8.8v-20.5h11.9c13.5 0 20.2-8.1 20.2-18.8 0-10.8-6.6-18.9-20.1-18.9h-20.8zm8.8-27.9v-22.7h11c8.7 0 12.3 4.7 12.3 11.3 0 6.6-3.6 11.4-12.2 11.4zm41.7 27.9h8.5v-43.6h-8.5zm4.3-50.4c2.9 0 5.4-2.3 5.4-5 0-2.8-2.5-5.1-5.4-5.1-3 0-5.4 2.3-5.4 5.1 0 2.7 2.4 5 5.4 5zm53 6.7h-9.2l-11 33.6h-0.4l-11.1-33.6h-9.1l15.8 43.7h9.1zm24.9 44.5c12.3 0 20.3-9 20.3-22.5 0-13.6-8-22.6-20.3-22.6-12.3 0-20.4 9-20.4 22.6 0 13.5 8.1 22.5 20.4 22.5zm0-7.1c-8 0-11.8-7-11.8-15.4 0-8.4 3.8-15.5 11.8-15.5 8 0 11.7 7.1 11.7 15.5 0 8.4-3.7 15.4-11.7 15.4zm50.1-37.4h-8.9v-10.5h-8.5v10.5h-6.4v6.8h6.4v25.8c0 7.9 6 11.7 12.7 11.6 2.7 0 4.5-0.6 5.5-0.9l-1.5-7c-0.6 0.1-1.6 0.3-3 0.3-2.7 0-5.2-0.9-5.2-5.8v-24h8.9zm9.4 43.6h8.5v-26.6c0-5.7 4.4-9.8 10.4-9.8 1.8 0 3.8 0.3 4.5 0.5v-8.2c-0.9-0.1-2.6-0.2-3.6-0.2-5.2 0-9.5 2.9-11.1 7.6h-0.5v-6.9h-8.2zm48 0.9c9.5 0 16.2-4.7 18.1-11.8l-8-1.5c-1.5 4.2-5.2 6.3-10.1 6.3-7.2 0-12.1-4.8-12.3-13.2h31v-3c0-15.7-9.4-21.9-19.3-21.9-12.2 0-20.2 9.3-20.2 22.7 0 13.5 7.9 22.4 20.8 22.4zm-12.3-26.5c0.3-6.2 4.8-11.6 11.7-11.6 6.6 0 10.9 4.9 11 11.6zm59.2 26.5c9.5 0 16.3-4.7 18.2-11.8l-8-1.5c-1.6 4.2-5.3 6.3-10.1 6.3-7.3 0-12.2-4.8-12.4-13.2h31v-3c0-15.7-9.4-21.9-19.3-21.9-12.1 0-20.1 9.3-20.1 22.7 0 13.5 7.9 22.4 20.7 22.4zm-12.3-26.5c0.4-6.2 4.9-11.6 11.8-11.6 6.6 0 10.9 4.9 10.9 11.6zm110.7-13.7c-2-12.4-11.8-19.7-24.1-19.7-15 0-26.1 11.3-26.1 29.9 0 18.6 11 29.9 26.1 29.9 12.8 0 22.2-8 24.1-19.5l-8.9-0.1c-1.5 7.5-7.7 11.6-15.1 11.6-10 0-17.5-7.7-17.5-21.9 0-14.1 7.5-21.9 17.5-21.9 7.4 0 13.7 4.2 15.1 11.7zm28.2 40.2c12.3 0 20.4-9 20.4-22.5 0-13.6-8.1-22.6-20.4-22.6-12.3 0-20.3 9-20.3 22.6 0 13.5 8 22.5 20.3 22.5zm0-7.2c-8 0-11.7-7-11.7-15.3 0-8.4 3.7-15.5 11.7-15.5 8 0 11.8 7.1 11.8 15.5 0 8.3-3.8 15.3-11.8 15.3zm38.3-19.6c0-7 4.3-10.9 10.2-10.9 5.8 0 9.2 3.7 9.2 10.1v26.7h8.5v-27.8c0-10.8-5.9-16.4-14.8-16.4-6.6 0-10.9 3-12.9 7.7h-0.5v-7.1h-8.2v43.6h8.5zm59.7-17.7h-9v-10.5h-8.5v10.5h-6.4v6.8h6.4v25.8c0 7.9 6.1 11.7 12.8 11.6 2.7-0.1 4.5-0.6 5.5-0.9l-1.6-7c-0.5 0.1-1.6 0.3-2.9 0.3-2.8 0-5.3-0.9-5.3-5.8v-24h9zm9.3 43.6h8.5v-26.6c0-5.7 4.4-9.9 10.5-9.9 1.7 0 3.7 0.4 4.4 0.6v-8.2c-0.9-0.1-2.5-0.2-3.6-0.2-5.1 0-9.5 2.9-11.1 7.6h-0.4v-6.9h-8.3zm47.6 0.9c12.3 0 20.3-9 20.3-22.5 0-13.6-8-22.6-20.3-22.6-12.3 0-20.4 9-20.4 22.6 0 13.5 8.1 22.5 20.4 22.5zm0-7.2c-8 0-11.8-7-11.8-15.4 0-8.3 3.8-15.4 11.8-15.4 8 0 11.7 7.1 11.7 15.4 0 8.4-3.7 15.4-11.7 15.4zm38.3-51.9h-8.5v58.2h8.5zm30.4 7.5h18.1v50.7h8.8v-50.7h18.1v-7.5h-45zm66.3 51.5c12.3 0 20.3-9 20.3-22.5 0-13.6-8-22.6-20.3-22.6-12.3 0-20.4 9-20.4 22.6 0 13.5 8.1 22.5 20.4 22.5zm0-7.1c-8 0-11.8-7.1-11.8-15.4 0-8.4 3.8-15.5 11.8-15.5 8 0 11.7 7.1 11.7 15.5 0 8.3-3.7 15.4-11.7 15.4zm37.9 6.2h8.6l8.9-31.5h0.7l8.8 31.5h8.7l12.8-43.6h-8.8l-8.5 31.9h-0.4l-8.5-31.9h-8.8l-8.6 32h-0.4l-8.6-32h-8.7zm74 0.9c9.5 0 16.2-4.7 18.1-11.8l-8-1.5c-1.5 4.1-5.2 6.2-10 6.2-7.3 0-12.2-4.7-12.4-13.1h31v-3c0-15.8-9.4-21.9-19.3-21.9-12.2 0-20.2 9.2-20.2 22.6 0 13.6 7.9 22.5 20.8 22.5zm-12.3-26.5c0.3-6.2 4.8-11.6 11.7-11.6 6.6 0 10.9 4.9 11 11.6zm40.4 25.6h8.5v-26.7c0-5.7 4.4-9.8 10.4-9.8 1.8 0 3.8 0.3 4.5 0.5v-8.1c-0.9-0.1-2.6-0.2-3.6-0.2-5.1 0-9.5 2.9-11.1 7.6h-0.5v-7h-8.2z"/></svg>